<?xml version="1.0" encoding="UTF-8" standalone="no"?>
<svg
   xmlns:dc="http://purl.org/dc/elements/1.1/"
   xmlns:cc="http://creativecommons.org/ns#"
   xmlns:rdf="http://www.w3.org/1999/02/22-rdf-syntax-ns#"
   xmlns:svg="http://www.w3.org/2000/svg"
   xmlns="http://www.w3.org/2000/svg"
   id="svg29"
   version="1.1"
   viewBox="0 0 79.374998 79.375002"
   height="300"
   width="300">
  <defs
     id="defs23" />
  <metadata
     id="metadata26">
    <rdf:RDF>
      <cc:Work
         rdf:about="">
        <dc:format>image/svg+xml</dc:format>
        <dc:type
           rdf:resource="http://purl.org/dc/dcmitype/StillImage" />
        <dc:title></dc:title>
      </cc:Work>
    </rdf:RDF>
  </metadata>
  <g
     transform="translate(0,-217.62498)"
     id="layer1">
    <path
       id="path42"
       d="m 26.601004,291.31732 -1.16523,-1.71363 0.46329,-7.38185 c 0.236538,-3.12352 0.366377,-10.34049 0.72296,-13.2778 0.90455,-2.54596 0.561612,-2.50331 2.165209,-4.86318 1.811244,-2.86244 3.936757,-4.85627 5.731711,-7.25854 1.21241,-1.61653 4.4471,-4.74387 4.90672,-4.74387 0.76848,0 2.24774,1.42355 5.03442,4.84483 0.90093,1.10608 2.86692,3.45079 4.36889,5.21047 1.50197,1.75968 2.85075,3.3406 2.99728,3.51315 -0.293196,5.48203 -0.350835,13.01982 -0.32748,19.74343 0,3.87559 -0.002,3.89908 -0.57576,5.6291 -0.8384,2.52978 -1.11276,2.61025 -2.02731,0.59464 -2.366692,-6.35656 -2.236606,-13.05782 -2.23235,-18.60231 0.009,-2.20653 0.0439,-2.44397 0.49539,-3.31614 l 0.48629,-0.93943 -0.55372,-0.83597 c -0.68086,-1.02791 -4.69818,-5.4233 -5.43885,-5.95071 -0.42456,-0.30231 -0.80644,-0.38304 -1.79115,-0.37866 l -1.25155,0.006 -3.48408,3.78802 -3.48409,3.78803 -0.88321,6.30741 c -0.78581,5.61178 -0.89205,6.76109 -0.96334,10.42095 -0.0887,4.54998 -0.25106,5.43942 -1.18834,6.50692 -0.30094,0.34277 -0.61315,0.6232 -0.6938,0.6232 -0.0807,0 -0.67097,-0.77113 -1.31185,-1.71363 z m 0.9086,-36.49515 -0.30503,-0.95385 4.45697,-8.18711 4.45697,-8.1871 -0.36279,-1.20924 c -0.34555,-1.15181 -0.478,-1.3243 -2.78869,-3.63155 -2.64927,-2.6453 -3.4071,-3.79909 -3.4071,-5.18724 0,-0.66939 0.0909,-0.84843 0.67535,-1.33018 0.69798,-0.57532 2.01351,-1.11535 2.71708,-1.11535 0.30898,0 0.72748,0.48447 1.80699,2.09185 1.61045,2.39792 2.30664,3.14521 3.14617,3.37701 0.55386,0.15293 1.60568,0.0319 2.03647,-0.23435 0.36746,-0.22711 1.17175,-1.80692 1.88037,-3.69347 0.8127,-2.16363 1.22939,-2.89084 2.3911,-4.17291 0.80515,-0.88858 0.81579,-0.89347 1.47257,-0.67671 0.8861,0.29244 1.57208,1.01265 1.7211,1.80699 0.22519,1.20034 -0.22583,2.69022 -1.82665,6.03414 -1.65472,3.45652 -2.45041,5.57799 -2.61578,6.97423 l -0.10249,0.86534 2.17874,1.72106 2.17872,1.72107 1.27114,2.37671 c 1.1244,2.10235 1.49664,2.61028 3.22464,4.40015 1.14441,1.18538 2.0125,2.24548 2.09592,2.55953 0.16124,0.60692 0.173,2.04213 0.018,2.19712 -0.19823,0.19823 -4.84134,-1.38118 -5.09709,-1.73384 -1.09249,-1.50645 -4.66269,-5.75618 -5.14449,-6.12367 -0.91898,-0.70093 -2.15652,-1.20017 -2.96705,-1.19694 -0.83904,0.004 -0.35632,-0.58205 -4.43821,5.38235 -1.44514,2.11161 -3.0945,4.31583 -3.66525,4.89826 -1.18532,1.20959 -2.48284,1.91866 -3.79539,2.0741 l -0.90727,0.10746 -0.30504,-0.95386 z"
       style="fill:#000000;stroke-width:0.18282366" />
  </g>
</svg>
